<svg width="167" height="78" viewBox="0 0 167 78" fill="none" xmlns="http://www.w3.org/2000/svg">
<path d="M123.814 63.005V63.446L123.193 63.572V67.469L123.841 67.559V68H121.591V67.559L122.266 67.469V63.518H120.025V67.469L120.691 67.559V68H118.45V67.559L119.098 67.469V63.572L118.45 63.446V63.005H123.814ZM126.903 68.099C126.177 68.099 125.622 67.862 125.238 67.388C124.86 66.914 124.671 66.281 124.671 65.489C124.671 64.967 124.77 64.508 124.968 64.112C125.166 63.716 125.442 63.41 125.796 63.194C126.156 62.978 126.564 62.87 127.02 62.87C127.578 62.87 128.01 63.026 128.316 63.338C128.628 63.644 128.793 64.085 128.811 64.661C128.811 65.027 128.79 65.306 128.748 65.498H125.652C125.664 66.092 125.802 66.572 126.066 66.938C126.33 67.298 126.705 67.478 127.191 67.478C127.431 67.478 127.68 67.436 127.938 67.352C128.202 67.262 128.406 67.157 128.55 67.037L128.721 67.433C128.547 67.613 128.289 67.769 127.947 67.901C127.605 68.033 127.257 68.099 126.903 68.099ZM127.821 65.021C127.839 64.895 127.848 64.766 127.848 64.634C127.842 64.244 127.758 63.938 127.596 63.716C127.44 63.488 127.191 63.374 126.849 63.374C126.501 63.374 126.222 63.5 126.012 63.752C125.808 64.004 125.691 64.427 125.661 65.021H127.821ZM134.454 65.327C134.454 65.837 134.349 66.305 134.139 66.731C133.929 67.151 133.629 67.484 133.239 67.73C132.849 67.976 132.393 68.099 131.871 68.099C131.727 68.099 131.571 68.087 131.403 68.063C131.235 68.039 131.1 68.009 130.998 67.973L131.025 68.729V69.638L131.961 69.737V70.178H129.45V69.737L130.098 69.638V63.698L129.441 63.536V63.05L130.719 62.888H130.737L130.926 63.05V63.581C131.106 63.383 131.328 63.215 131.592 63.077C131.862 62.939 132.162 62.87 132.492 62.87C132.846 62.87 133.17 62.957 133.464 63.131C133.764 63.305 134.004 63.575 134.184 63.941C134.364 64.307 134.454 64.769 134.454 65.327ZM132.123 63.5C131.895 63.5 131.682 63.548 131.484 63.644C131.286 63.74 131.133 63.845 131.025 63.959V67.352C131.067 67.424 131.172 67.49 131.34 67.55C131.514 67.604 131.703 67.631 131.907 67.631C132.369 67.631 132.741 67.448 133.023 67.082C133.311 66.716 133.455 66.164 133.455 65.426C133.455 64.778 133.329 64.295 133.077 63.977C132.831 63.659 132.513 63.5 132.123 63.5ZM137.45 68.099C136.724 68.099 136.169 67.862 135.785 67.388C135.407 66.914 135.218 66.281 135.218 65.489C135.218 64.967 135.317 64.508 135.515 64.112C135.713 63.716 135.989 63.41 136.343 63.194C136.703 62.978 137.111 62.87 137.567 62.87C138.125 62.87 138.557 63.026 138.863 63.338C139.175 63.644 139.34 64.085 139.358 64.661C139.358 65.027 139.337 65.306 139.295 65.498H136.199C136.211 66.092 136.349 66.572 136.613 66.938C136.877 67.298 137.252 67.478 137.738 67.478C137.978 67.478 138.227 67.436 138.485 67.352C138.749 67.262 138.953 67.157 139.097 67.037L139.268 67.433C139.094 67.613 138.836 67.769 138.494 67.901C138.152 68.033 137.804 68.099 137.45 68.099ZM138.368 65.021C138.386 64.895 138.395 64.766 138.395 64.634C138.389 64.244 138.305 63.938 138.143 63.716C137.987 63.488 137.738 63.374 137.396 63.374C137.048 63.374 136.769 63.5 136.559 63.752C136.355 64.004 136.238 64.427 136.208 65.021H138.368ZM145.541 63.005V63.446L144.92 63.572V67.469L145.568 67.559V68H143.318V67.559L143.993 67.469V63.518H141.752V67.469L142.418 67.559V68H140.177V67.559L140.825 67.469V63.572L140.177 63.446V63.005H145.541ZM147.478 62.105C147.286 62.105 147.142 62.051 147.046 61.943C146.95 61.835 146.902 61.697 146.902 61.529C146.902 61.337 146.959 61.178 147.073 61.052C147.193 60.926 147.355 60.863 147.559 60.863C147.763 60.863 147.913 60.917 148.009 61.025C148.105 61.133 148.153 61.271 148.153 61.439C148.153 61.643 148.093 61.805 147.973 61.925C147.859 62.045 147.697 62.105 147.487 62.105H147.478ZM147.118 63.698L146.434 63.536V63.059L147.829 62.888H147.847L148.054 63.05V67.487L148.774 67.559V68H146.389V67.559L147.118 67.478V63.698ZM151.042 64.013C151.042 64.841 150.994 65.552 150.898 66.146C150.802 66.734 150.685 67.166 150.547 67.442C150.457 67.646 150.34 67.799 150.196 67.901C150.052 68.003 149.842 68.054 149.566 68.054C149.458 68.054 149.314 68.036 149.134 68L149.08 67.244C149.218 67.274 149.422 67.289 149.692 67.289C149.944 67.289 150.145 66.956 150.295 66.29C150.445 65.624 150.523 64.718 150.529 63.572L149.71 63.446V63.005H154.3V63.455L153.517 63.59V67.478L154.273 67.559V68H151.888V67.559L152.59 67.478V63.545H151.042V64.013ZM158.098 65.273C158.32 65.375 158.524 65.54 158.71 65.768C158.896 65.996 159.109 66.296 159.349 66.668C159.505 66.914 159.634 67.103 159.736 67.235C159.838 67.361 159.931 67.436 160.015 67.46L160.366 67.55V68H159.421C159.259 68 159.1 67.901 158.944 67.703C158.788 67.505 158.602 67.214 158.386 66.83C158.158 66.428 157.963 66.125 157.801 65.921C157.639 65.717 157.468 65.615 157.288 65.615H156.631V67.478L157.414 67.559V68H155.029V67.559L155.713 67.478V63.572L155.038 63.446V63.005H157.342V63.446L156.631 63.572V65.183H157.54L158.737 63.572L158.053 63.446V63.005H160.15V63.446L159.484 63.572L158.098 65.273ZM160.786 66.65C160.786 66.086 161.068 65.672 161.632 65.408C162.196 65.138 162.91 64.994 163.774 64.976V64.724C163.774 64.442 163.744 64.22 163.684 64.058C163.624 63.896 163.519 63.779 163.369 63.707C163.225 63.629 163.018 63.59 162.748 63.59C162.442 63.59 162.166 63.635 161.92 63.725C161.68 63.809 161.44 63.914 161.2 64.04L160.975 63.572C161.053 63.506 161.197 63.419 161.407 63.311C161.617 63.203 161.86 63.107 162.136 63.023C162.412 62.939 162.688 62.897 162.964 62.897C163.39 62.897 163.726 62.957 163.972 63.077C164.224 63.191 164.404 63.377 164.512 63.635C164.62 63.893 164.674 64.238 164.674 64.67V67.559H165.205V67.955C165.085 67.985 164.932 68.015 164.746 68.045C164.566 68.075 164.407 68.09 164.269 68.09C164.101 68.09 163.987 68.063 163.927 68.009C163.867 67.961 163.837 67.85 163.837 67.676V67.379C163.657 67.559 163.435 67.724 163.171 67.874C162.913 68.024 162.619 68.099 162.289 68.099C161.857 68.099 161.497 67.976 161.209 67.73C160.927 67.478 160.786 67.118 160.786 66.65ZM162.676 67.487C162.832 67.487 163.012 67.439 163.216 67.343C163.42 67.247 163.606 67.133 163.774 67.001V65.453C163.12 65.453 162.625 65.555 162.289 65.759C161.959 65.957 161.794 66.218 161.794 66.542C161.794 66.866 161.872 67.106 162.028 67.262C162.19 67.412 162.406 67.487 162.676 67.487Z" fill="white"/>
<path d="M9.84 18.14L3.3 17.42V14.42H19.2L27.66 41.42L29.64 49.04L31.44 41.42L39.84 14.42H55.62V17.42L49.02 18.14L53.82 55.4L59.04 56.06V59H41.76V56.06L47.22 55.46L44.52 28.52L43.26 16.94L40.74 25.58L30.72 56.96H26.82L17.1 28.22L13.56 16.88L12.48 28.52L10.08 55.46L16.02 56.06V59H0.36V56.06L5.46 55.46L9.84 18.14Z" fill="white"/>
<path d="M5.61 63.005L6.6 65.642L6.969 66.722L7.302 65.642L8.274 63.005H10.398V63.446L9.507 63.572L10.137 67.478L10.839 67.559V68H8.49V67.559L9.192 67.478L8.868 64.886L8.679 63.455L8.22 64.868L7.14 67.694H6.537L5.43 64.859L4.935 63.482L4.782 64.868L4.431 67.487L5.205 67.559V68H3.09V67.559L3.792 67.478L4.395 63.572L3.531 63.446V63.005H5.61ZM11.3152 65.489C11.3152 64.949 11.4262 64.481 11.6482 64.085C11.8702 63.689 12.1612 63.389 12.5212 63.185C12.8872 62.975 13.2772 62.87 13.6912 62.87C14.4472 62.87 15.0142 63.11 15.3922 63.59C15.7762 64.07 15.9682 64.7 15.9682 65.48C15.9682 66.026 15.8572 66.497 15.6352 66.893C15.4132 67.289 15.1192 67.589 14.7532 67.793C14.3932 67.997 14.0062 68.099 13.5922 68.099C12.8362 68.099 12.2662 67.859 11.8822 67.379C11.5042 66.899 11.3152 66.269 11.3152 65.489ZM13.6462 67.586C14.0602 67.586 14.3782 67.415 14.6002 67.073C14.8222 66.731 14.9332 66.224 14.9332 65.552C14.9332 64.886 14.8312 64.358 14.6272 63.968C14.4232 63.578 14.0962 63.383 13.6462 63.383C13.2322 63.383 12.9112 63.554 12.6832 63.896C12.4612 64.238 12.3502 64.745 12.3502 65.417C12.3502 66.083 12.4552 66.611 12.6652 67.001C12.8752 67.391 13.2022 67.586 13.6462 67.586ZM25.0257 68.081C24.9537 68.843 24.8967 69.377 24.8547 69.683H24.2967C24.2967 69.623 24.2877 69.521 24.2697 69.377C24.2037 68.495 24.1617 68.036 24.1437 68H16.7097V67.577L17.4747 67.478V63.572L16.7277 63.446V63.005H19.1487V63.446L18.4017 63.572V67.505H20.3637V63.572L19.6077 63.446V63.005H21.9927V63.446L21.2817 63.572V67.505H23.2527V63.572L22.4967 63.446V63.005H24.8907V63.446L24.1707 63.572V67.487H25.0887L25.0257 68.081ZM26.3967 70.241C26.2947 70.241 26.1927 70.235 26.0907 70.223C25.9947 70.211 25.9257 70.193 25.8837 70.169V69.386C25.9197 69.41 25.9887 69.428 26.0907 69.44C26.1987 69.452 26.3007 69.458 26.3967 69.458C26.6847 69.458 26.9367 69.356 27.1527 69.152C27.3747 68.954 27.5877 68.57 27.7917 68H27.3597L25.6497 63.545L25.2357 63.428V63.005H27.4047V63.428L26.7117 63.536L27.5937 66.191L28.0077 67.505L28.3947 66.182L29.1957 63.536L28.5927 63.428V63.005H30.4017V63.428L29.9517 63.536C29.0697 66.236 28.5507 67.769 28.3947 68.135C28.1907 68.651 28.0047 69.053 27.8367 69.341C27.6687 69.635 27.4707 69.857 27.2427 70.007C27.0147 70.163 26.7327 70.241 26.3967 70.241ZM33.1851 63.005V63.446L32.4381 63.572V65.147H34.9221V63.572L34.1661 63.446V63.005H36.5061V63.446L35.8491 63.572V67.478L36.5421 67.559V68H34.1481V67.559L34.9221 67.478V65.669H32.4381V67.478L33.2121 67.559V68H30.8271V67.559L31.5111 67.478V63.572L30.8361 63.446V63.005H33.1851ZM37.2404 65.534C37.2404 65.036 37.3364 64.586 37.5284 64.184C37.7264 63.782 38.0144 63.464 38.3924 63.23C38.7764 62.99 39.2354 62.87 39.7694 62.87C40.0274 62.87 40.2494 62.894 40.4354 62.942C40.6214 62.99 40.8434 63.056 41.1014 63.14L41.0654 64.526H40.4804L40.2824 63.608C40.2464 63.44 40.0184 63.356 39.5984 63.356C39.1784 63.356 38.8454 63.527 38.5994 63.869C38.3594 64.205 38.2394 64.685 38.2394 65.309C38.2394 66.017 38.3744 66.557 38.6444 66.929C38.9204 67.295 39.2774 67.478 39.7154 67.478C39.9674 67.478 40.2044 67.439 40.4264 67.361C40.6544 67.283 40.8494 67.19 41.0114 67.082L41.1824 67.442C41.0204 67.61 40.7804 67.763 40.4624 67.901C40.1504 68.033 39.8324 68.099 39.5084 68.099C39.0164 68.099 38.5994 67.988 38.2574 67.766C37.9214 67.544 37.6664 67.241 37.4924 66.857C37.3244 66.467 37.2404 66.026 37.2404 65.534ZM44.5816 64.976C45.8656 64.976 46.5076 65.477 46.5076 66.479C46.5076 67.007 46.3336 67.409 45.9856 67.685C45.6376 67.955 45.1426 68.09 44.5006 68.09C44.4226 68.09 44.2966 68.084 44.1226 68.072C43.9486 68.06 43.8106 68.051 43.7086 68.045C43.3786 68.015 43.1326 68 42.9706 68H41.8636V67.577L42.6556 67.478V63.572L41.9176 63.455V63.005H44.4646V63.455L43.5736 63.572V64.985L44.5816 64.976ZM43.5736 67.532C43.8136 67.574 44.0776 67.595 44.3656 67.595C45.1396 67.595 45.5266 67.247 45.5266 66.551C45.5266 66.185 45.4276 65.918 45.2296 65.75C45.0316 65.582 44.7286 65.498 44.3206 65.498H43.5736V67.532ZM50.1734 65.273C50.3954 65.375 50.5994 65.54 50.7854 65.768C50.9714 65.996 51.1844 66.296 51.4244 66.668C51.5804 66.914 51.7094 67.103 51.8114 67.235C51.9134 67.361 52.0064 67.436 52.0904 67.46L52.4414 67.55V68H51.4964C51.3344 68 51.1754 67.901 51.0194 67.703C50.8634 67.505 50.6774 67.214 50.4614 66.83C50.2334 66.428 50.0384 66.125 49.8764 65.921C49.7144 65.717 49.5434 65.615 49.3634 65.615H48.7064V67.478L49.4894 67.559V68H47.1044V67.559L47.7884 67.478V63.572L47.1134 63.446V63.005H49.4174V63.446L48.7064 63.572V65.183H49.6154L50.8124 63.572L50.1284 63.446V63.005H52.2254V63.446L51.5594 63.572L50.1734 65.273ZM52.8611 66.65C52.8611 66.086 53.1431 65.672 53.7071 65.408C54.2711 65.138 54.9851 64.994 55.8491 64.976V64.724C55.8491 64.442 55.8191 64.22 55.7591 64.058C55.6991 63.896 55.5941 63.779 55.4441 63.707C55.3001 63.629 55.0931 63.59 54.8231 63.59C54.5171 63.59 54.2411 63.635 53.9951 63.725C53.7551 63.809 53.5151 63.914 53.2751 64.04L53.0501 63.572C53.1281 63.506 53.2721 63.419 53.4821 63.311C53.6921 63.203 53.9351 63.107 54.2111 63.023C54.4871 62.939 54.7631 62.897 55.0391 62.897C55.4651 62.897 55.8011 62.957 56.0471 63.077C56.2991 63.191 56.4791 63.377 56.5871 63.635C56.6951 63.893 56.7491 64.238 56.7491 64.67V67.559H57.2801V67.955C57.1601 67.985 57.0071 68.015 56.8211 68.045C56.6411 68.075 56.4821 68.09 56.3441 68.09C56.1761 68.09 56.0621 68.063 56.0021 68.009C55.9421 67.961 55.9121 67.85 55.9121 67.676V67.379C55.7321 67.559 55.5101 67.724 55.2461 67.874C54.9881 68.024 54.6941 68.099 54.3641 68.099C53.9321 68.099 53.5721 67.976 53.2841 67.73C53.0021 67.478 52.8611 67.118 52.8611 66.65ZM54.7511 67.487C54.9071 67.487 55.0871 67.439 55.2911 67.343C55.4951 67.247 55.6811 67.133 55.8491 67.001V65.453C55.1951 65.453 54.7001 65.555 54.3641 65.759C54.0341 65.957 53.8691 66.218 53.8691 66.542C53.8691 66.866 53.9471 67.106 54.1031 67.262C54.2651 67.412 54.4811 67.487 54.7511 67.487Z" fill="white"/>
<path d="M161.94 14.42V17.42L156.84 18.2V55.4L162.42 56.06V59H145.5V56.06L150.48 55.4V17.96H131.28V55.46L136.86 56.06V59H120.06V56.06L124.92 55.46V18.14L119.82 17.42V14.42H161.94Z" fill="white"/>
<path d="M68.6148 34.3115H71.2787V27.3443C71.2787 27.3443 71.4483 26.115 71.8934 25.5C72.2599 24.9937 73.123 24.4754 73.123 24.4754H78.2459V20.377C78.2459 20.377 79.0776 18.9978 80.0902 18.2254C80.7613 17.7135 81.7089 17.2536 82.5492 16.8934C83.3895 16.5333 85.0082 16.2787 85.0082 16.2787H90.0287C90.0287 16.2787 91.1529 16.3979 92.3853 16.6885C93.1833 16.8767 94.0266 17.3235 94.6394 17.7131C95.1321 18.0265 95.8424 18.4357 96.2787 18.9426C96.9851 19.7635 97.3055 20.6825 97.3033 20.6844V24.4754H101.607C101.607 24.4754 102.701 24.568 103.246 25.0902C103.743 25.5663 104.27 26.9344 104.27 26.9344V34.3115H106.934V25.9098C106.934 25.9098 106.248 23.9384 105.5 23.041C104.988 22.4262 104.142 21.8963 103.041 21.5041C101.873 21.0878 99.9672 21.1967 99.9672 21.1967V19.5574C99.9672 19.5574 98.714 17.1828 97.5082 15.9713C95.8034 14.2584 91.9226 13 91.9226 13H83.8812C83.8812 13 81.0574 13.6738 79.373 14.8443C78.5352 15.4264 78.2465 15.7058 77.4262 16.5861C76.606 17.4663 75.582 19.3525 75.582 19.3525V21.1967C75.582 21.1967 73.2013 20.9005 71.8934 21.5041C70.8145 22.0021 70.3901 22.4207 69.7418 23.3484C69.0854 24.2875 68.6148 25.9098 68.6148 25.9098V34.3115Z" fill="white" stroke="white"/>
<path d="M74.0668 63H76.7307H77.0381V58.4918L81.5463 53.5738H81.7512C81.7512 53.5738 84.5161 57.6135 87.0791 58.082C87.945 58.2402 87.5442 58.2354 88.411 58.082C91.0879 57.608 94.0463 53.3689 94.0463 53.3689L98.452 58.6967V63H101.628V58.6967C101.628 58.6967 104.484 56.3145 105.624 54.291C106.401 52.9121 106.769 52.0562 107.059 50.5C107.359 48.8872 107.361 47.9116 107.059 46.2992C106.715 44.4659 106.439 43.2999 105.214 41.8934C103.792 40.2606 100.296 39.332 100.296 39.332V31.6475H97.325V41.8934C97.325 41.8934 102.774 43.6525 103.677 46.6066C104.122 48.0606 104.07 49.031 103.677 50.5C103.11 52.6262 100.296 55.0082 100.296 55.0082H99.9889L96.1979 50.5L98.1446 48.2459L95.5832 45.7869C95.5832 45.7869 90.87 53.5738 88.411 54.1885C87.9064 54.3147 87.5237 54.4585 87.0791 54.1885C84.2102 52.4467 80.0094 45.7869 80.0094 45.7869L77.3454 48.2459L79.2922 50.7049L75.3987 55.2131C75.3987 55.2131 72.3605 52.5389 71.8127 50.1926C71.421 48.5153 71.3759 47.3853 72.0176 45.7869C73.1381 42.9958 78.4725 41.5861 78.4725 41.5861V31.4426H75.0914V39.2295C75.0914 39.2295 73.669 39.5448 72.8373 39.9467C70.5394 41.057 69.4041 42.4656 68.534 44.8648C67.7154 47.1217 67.9372 48.6869 68.534 51.0123C69.4371 54.5315 74.0668 58.4918 74.0668 58.4918V63Z" fill="white" stroke="white"/>
<path d="M84.7008 30.5219C85.6118 31.1321 86.7145 32.3933 87.3205 33.1297C87.5435 33.4006 87.9761 33.38 88.1766 33.0921C88.6317 32.4387 89.4046 31.4259 90.1312 30.9317C90.8835 30.4199 92.133 30.1159 92.783 29.9844C93.025 29.9354 93.2049 29.7247 93.2049 29.4778V27.2174C93.2049 26.9466 92.9897 26.7264 92.719 26.7357C92.1326 26.7558 91.1382 26.8367 90.4385 27.1407C89.308 27.6319 87.6721 29.1899 87.6721 29.1899C87.6721 29.1899 86.151 27.6209 85.1107 27.1407C84.4032 26.8142 83.3786 26.7896 82.7954 26.8073C82.5387 26.8151 82.3443 27.0289 82.3443 27.2858V29.379C82.3443 29.6659 82.5856 29.8985 82.8712 29.9249C83.3529 29.9692 84.0821 30.1074 84.7008 30.5219Z" fill="white" stroke="white"/>
</svg>
